<svg width="32" height="32" viewBox="0 0 32 32" fill="none" xmlns="http://www.w3.org/2000/svg">
<path d="M25.5621 23.9471C25.1285 23.9471 24.7911 24.2943 24.7911 24.7404C24.7911 26.1779 23.6829 27.3184 22.2854 27.3184C20.8882 27.3184 19.7797 26.1783 19.7797 24.7404C19.7797 23.3029 20.8879 22.1624 22.2854 22.1624H23.0564V18.9402H25.7546V11.8012H23.0564V8.77715H25.5621C25.9957 8.77715 26.3331 8.42995 26.3331 7.98386C26.3331 7.53776 25.9957 7.19057 25.5621 7.19057H11.2513V1.78694C11.2513 1.34084 10.9139 0.993652 10.4803 0.993652C10.0467 0.993652 9.70926 1.34085 9.70926 1.78694V4.51368L6.529 1.24161C6.48094 1.19216 6.38447 1.09291 6.28801 1.09291C6.09542 0.993661 5.90249 0.993661 5.7099 1.09291C5.51731 1.19216 5.37245 1.34086 5.32438 1.48956C5.27632 1.58881 5.27632 1.68771 5.27632 1.78696V7.19059H2.77065C2.33706 7.19059 1.99962 7.53779 1.99962 7.98388C1.99962 8.42998 2.33707 8.77716 2.77065 8.77716H5.27632V29.4005C5.27632 29.4998 5.27632 29.5987 5.32438 29.6979C5.42085 29.8961 5.56537 30.0451 5.7099 30.0946C5.80637 30.144 5.90249 30.144 5.99896 30.144C6.09542 30.144 6.19155 30.144 6.28801 30.0946C6.38447 30.0451 6.4806 29.9953 6.529 29.9459L9.70926 26.6738V29.4006C9.70926 29.8467 10.0467 30.1938 10.4803 30.1938C10.9139 30.1938 11.2513 29.8466 11.2513 29.4006V8.77718H21.5628V11.8013H18.8645V18.9402H21.5628V20.6755C19.6836 21.0227 18.2864 22.7082 18.2864 24.7409C18.2864 27.0216 20.0691 28.8557 22.2857 28.8557C24.5023 28.8557 26.285 27.0215 26.285 24.7409C26.285 24.2945 25.9476 23.9473 25.5621 23.9473L25.5621 23.9471ZM9.70941 13.7346L7.05918 11.0079L9.70941 8.28113V13.7346ZM9.42036 15.6186L6.77013 18.3453V12.8918L9.42036 15.6186ZM6.77013 9.17367V3.72019L9.42036 6.44693L6.77013 9.17367ZM6.77013 27.5166V22.0631L9.42036 24.7898L6.77013 27.5166ZM7.05918 20.229L9.70941 17.5023V22.9557L7.05918 20.229ZM20.3099 13.338H24.2612V17.4034H20.3099V13.338Z" fill="#0071B3"/>
</svg>
