<svg width="32" height="32" viewBox="0 0 32 32" fill="none" xmlns="http://www.w3.org/2000/svg">
<path d="M6.19241 15.5C6.19241 19.8366 6.19241 24.3055 7.70811 25.6522C9.22381 27 11.6641 27 16.5424 27C21.4219 27 23.861 27 25.3767 25.6522C26.8924 24.3055 26.8924 19.8366 26.8924 15.5" stroke="#0071B3" stroke-width="1.5525"/>
<path d="M19.6 18.0323L26.5092 15.96C27.1935 15.7541 27.5362 15.6518 27.7535 15.4057C27.7961 15.3576 27.8346 15.3061 27.8685 15.2516C28.041 14.9721 28.041 14.6156 28.041 13.9003C28.041 11.0828 28.041 9.6741 27.2671 8.72305C27.1182 8.54004 26.951 8.3728 26.768 8.22395C25.8169 7.45 24.4082 7.45 21.5907 7.45H11.4925C8.67502 7.45 7.26627 7.45 6.31522 8.22395C6.13122 8.37345 5.96447 8.5402 5.81612 8.72305C5.04102 9.6741 5.04102 11.0828 5.04102 13.9003C5.04102 14.6156 5.04102 14.9721 5.21352 15.2516C5.24802 15.3056 5.28597 15.3574 5.32852 15.4057C5.54702 15.6518 5.88857 15.7541 6.57282 15.96L13.482 18.0323M10.216 7.45C11.1625 7.427 12.125 6.82325 12.447 5.932L12.4873 5.81355L12.516 5.725C12.5643 5.57895 12.5896 5.5065 12.6149 5.4421C12.7774 5.03823 13.0511 4.68876 13.4043 4.4343C13.7575 4.17984 14.1756 4.03083 14.6102 4.0046C14.678 4 14.7562 4 14.908 4H18.1717C18.3247 4 18.4017 4 18.4707 4.0046C18.9052 4.03083 19.3234 4.17984 19.6766 4.4343C20.0298 4.68876 20.3035 5.03823 20.466 5.4421C20.4924 5.5065 20.5166 5.5801 20.5649 5.725L20.5948 5.81355C20.6155 5.8745 20.6247 5.90555 20.635 5.932C20.957 6.82325 21.9184 7.427 22.8649 7.45" stroke="#0071B3" stroke-width="1.5525"/>
<path d="M18.8403 16.0752H14.2403C14.0878 16.0752 13.9415 16.1358 13.8337 16.2436C13.7259 16.3514 13.6653 16.4977 13.6653 16.6502V19.1365C13.6653 19.2513 13.6997 19.3635 13.7641 19.4586C13.8284 19.5537 13.9198 19.6274 14.0264 19.6701L14.8314 19.9921C15.9284 20.431 17.1522 20.431 18.2492 19.9921L19.0542 19.6701C19.1608 19.6274 19.2521 19.5537 19.3165 19.4586C19.3808 19.3635 19.4153 19.2513 19.4153 19.1365V16.6502C19.4153 16.4977 19.3547 16.3514 19.2469 16.2436C19.139 16.1358 18.9928 16.0752 18.8403 16.0752Z" stroke="#0071B3" stroke-width="1.5525" stroke-linecap="round"/>
</svg>
